#!OML:ASF E:\emotionWalksFemale\Project 1\Capture day 1\Session 1\Female1.ASF
:FULLY-SPECIFIED
:DEGREES
1591
root 9.46336 15.0652 33.8506 176.434 -178.717 -186.065
lowerback 6.75385 4.48098 7.49204
upperback -5.71114 6.90708 0.479754
thorax -9.07453 2.88849 -4.61052
lowerneck -6.45726 -6.85258 -9.90566
upperneck 9.25838 -9.12954 8.59518
head 4.6801 -4.4083 3.66118
rclavicle 8.22969e-014 2.82274e-014
rhumerus -11.3443 21.5559 -81.4788
rradius 84.7053
rwrist -27.7051
rhand 2.60184 -46.6723
rfingers 7.12502
rthumb -151.92 105.409
lclavicle 8.22969e-014 2.82274e-014
lhumerus -71.7038 2.62757 51.6132
lradius 33.7773
lwrist -12.4708
lhand -16.3697 316.307
lfingers 7.12502
lthumb 9.84348 -13.9436
rfemur 24.4987 3.57538 36.8334
rtibia -3.81667e-014
rfoot -9.38118 -11.6113
rtoes -11.0378
lfemur -32.581 -16.544 -12.7434
ltibia 35.0075
lfoot -19.5974 -1.84675
ltoes -30.9439
1592
root 9.47716 15.0384 33.9666 176.669 -178.212 -186.204
lowerback 6.51568 4.48675 7.73711
upperback -5.8144 6.91921 0.414077
thorax -9.01342 2.87747 -4.79622
lowerneck -6.56382 -6.66127 -9.35099
upperneck 9.46318 -8.91551 8.44959
head 4.70817 -4.28826 3.54114
rclavicle -2.29596e-014 -1.19271e-014
rhumerus -13.3873 21.529 -83.1104
rradius 83.2703
rwrist -27.6627
rhand 2.15213 -47.2484
rfingers 7.12502
rthumb -152.35 104.764
lclavicle -2.29596e-014 -1.19271e-014
lhumerus -70.9503 3.00867 53.0034
lradius 33.7389
lwrist -12.5466
lhand -16.6284 316.041
lfingers 7.12502
lthumb 9.59389 -14.1976
rfemur 24.7728 3.82479 36.877
rtibia 1.59028e-014
rfoot -9.23868 -11.2594
rtoes -11.5764
lfemur -31.3735 -16.7133 -12.7263
ltibia 33.8407
lfoot -18.9856 -0.470527
ltoes -33.0727
1593
root 9.5227 15.033 34.2805 175.71 -177.043 -183.723
lowerback 3.90361 4.89904 5.88434
upperback -4.86432 6.9811 -0.206835
thorax -6.55919 3.14561 -4.10847
lowerneck -6.72238 -6.48998 -9.21701
upperneck 9.81747 -8.71114 8.48784
head 4.82012 -4.1758 3.54128
rclavicle -3.77691e-015 -3.97569e-015
rhumerus -15.5202 21.2096 -84.7384
rradius 81.4596
rwrist -27.4104
rhand 1.79981 -46.8871
rfingers 7.12502
rthumb -152.687 105.071
lclavicle -3.77691e-015 -3.97569e-015
lhumerus -70.0746 3.3656 54.5422
lradius 33.4442
lwrist -12.8894
lhand -16.8808 315.451
lfingers 7.12502
lthumb 9.35038 -14.7764
rfemur 27.5373 4.67358 33.9982
rtibia -1.59028e-014
rfoot -10.0363 -11.2124
rtoes -14.6945
lfemur -27.2263 -18.1432 -16.4036
ltibia 32.7597
lfoot -20.0642 1.9764
ltoes -27.9329
1594
root 9.54268 15.0105 34.419 175.818 -176.506 -183.197
lowerback 3.36104 4.85054 5.46145
upperback -4.88218 6.84674 -0.253407
thorax -6.31915 3.10978 -3.86236
lowerneck -6.84775 -6.27366 -9.36612
upperneck 10.1599 -8.42186 8.57364
head 4.92974 -4.03046 3.61024
rclavicle -7.17613e-014 -9.54166e-015
rhumerus -17.6034 20.5226 -86.3185
rradius 79.3683
rwrist -26.7452
rhand 1.83046 -47.7138
rfingers 7.12502
rthumb -152.658 104.249
lclavicle -7.17613e-014 -9.54166e-015
lhumerus -69.2752 3.89425 56.2885
lradius 33.039
lwrist -13.2277
lhand -17.3145 314.911
lfingers 7.12502
lthumb 8.93185 -15.2985
rfemur 28.0491 5.00255 33.2767
rtibia 2.22639e-014
rfoot -9.6553 -10.9368
rtoes -15.7539
lfemur -25.678 -18.7472 -17.2299
ltibia 31.8311
lfoot -20.4453 2.26279
ltoes -14.7903
1595
root 9.55744 14.9667 34.5516 175.392 -175.906 -182.633
lowerback 3.64766 4.77017 5.00689
upperback -4.91483 6.71879 -0.399034
thorax -6.56203 3.05429 -3.78897
lowerneck -6.94028 -6.03052 -9.14596
upperneck 10.567 -8.14038 8.61725
head 5.03653 -3.87782 3.60779
rclavicle 1.13904e-013 2.06736e-014
rhumerus -20.1527 19.4767 -88.0232
rradius 77.4206
rwrist -25.6707
rhand 2.24772 -47.9671
rfingers 7.12502
rthumb -152.259 104.06
lclavicle 1.13904e-013 2.06736e-014
lhumerus -68.3849 4.28155 57.8497
lradius 32.5891
lwrist -13.1528
lhand -17.902 314.098
lfingers 7.12502
lthumb 8.36487 -16.088
rfemur 29.1331 5.278 32.5942
rtibia -6.67916e-014
rfoot -9.28595 -10.6662
rtoes -15.3961
lfemur -23.5324 -18.8427 -18.4676
ltibia 31.1879
lfoot -20.5804 4.27155
ltoes -22.2282
1596
root 9.55702 14.9295 34.6955 175.288 -175.088 -182.563
lowerback 3.46498 4.82917 4.76643
upperback -5.00449 6.76956 -0.454059
thorax -6.56676 3.08857 -3.7054
lowerneck -7.21478 -5.82921 -8.64787
upperneck 11.1869 -7.94839 8.64565
head 5.23675 -3.75161 3.54316
rclavicle -5.51627e-014 2.38542e-015
rhumerus -22.4525 18.6235 -89.456
rradius 74.841
rwrist -24.8751
rhand 1.99241 -47.9179
rfingers 7.12502
rthumb -152.503 104.07
lclavicle -5.51627e-014 2.38542e-015
lhumerus -66.9314 4.61839 59.2541
lradius 31.7117
lwrist -12.9446
lhand -18.716 312.617
lfingers 7.12502
lthumb 7.5793 -17.539
rfemur 29.9002 5.76898 32.5322
rtibia 8.5875e-014
rfoot -8.68757 -10.4166
rtoes -15.3305
lfemur -21.7574 -18.8112 -18.9374
ltibia 30.6059
lfoot -20.0445 6.62548
ltoes -33.8536
1597
root 9.53061 14.9693 34.6269 177.222 -175.379 -185.724
lowerback 5.37321 4.3511 7.28853
upperback -6.46444 6.59472 0.118982
thorax -9.1081 2.72085 -4.75255
lowerneck -7.46818 -5.66447 -8.119
upperneck 11.8618 -7.83873 8.80021
head 5.46317 -3.65408 3.50764
rclavicle 2.8128e-014 -1.70955e-014
rhumerus -24.6514 16.6918 -90.9163
rradius 71.7416
rwrist -23.6683
rhand 1.37739 -46.7787
rfingers 7.12502
rthumb -153.091 105.117
lclavicle 2.8128e-014 -1.70955e-014
lhumerus -65.2987 5.01846 60.2297
lradius 30.9829
lwrist -13.6761
lhand -19.501 311.718
lfingers 7.12502
lthumb 6.82153 -18.4118
rfemur 23.3608 5.27077 35.9377
rtibia 7.46215
rfoot -10.1033 -10.4922
rtoes -14.9542
lfemur -24.7535 -18.8891 -14.0357
ltibia 30.0407
lfoot -16.7668 6.05261
ltoes -37.2099
1598
root 9.55541 14.9888 34.7672 177.442 -175.353 -185.143
lowerback 4.90667 4.20412 6.95961
upperback -6.66397 6.30865 -0.198272
thorax -9.08291 2.5898 -4.84646
lowerneck -7.38349 -5.51816 -7.87823
upperneck 12.2087 -7.73358 9.03446
head 5.54608 -3.57637 3.55361
rclavicle -1.77912e-014 -1.23246e-014
rhumerus -26.685 13.6912 -91.8553
rradius 68.6528
rwrist -21.0475
rhand 3.0681 -49.3791
rfingers 7.12502
rthumb -151.474 102.777
lclavicle -1.77912e-014 -1.23246e-014
lhumerus -63.756 5.71205 61.1823
lradius 30.7282
lwrist -14.8862
lhand -19.8507 312.177
lfingers 7.12502
lthumb 6.48394 -17.9426
rfemur 20.8888 5.12589 34.9493
rtibia 12.6989
rfoot -11.6107 -10.3465
rtoes -15.8322
lfemur -24.391 -20.8233 -14.5118
ltibia 29.2893
lfoot -14.7737 8.70105
ltoes -33.9254
1599
root 9.58743 15.0079 34.8947 177.487 -175.6 -184.373
lowerback 4.74132 3.93981 6.45646
upperback -6.82215 5.87662 -0.487353
thorax -9.2273 2.39217 -4.82827
lowerneck -7.24176 -5.35765 -7.79944
upperneck 12.504 -7.57957 9.20273
head 5.60259 -3.48793 3.61095
rclavicle -7.95139e-015 -2.18663e-014
rhumerus -28.6528 10.9454 -92.3622
rradius 65.1145
rwrist -19.1811
rhand 2.8063 -50.79
rfingers 7.12502
rthumb -151.725 101.324
lclavicle -7.95139e-015 -2.18663e-014
lhumerus -62.172 6.12179 63.0156
lradius 30.9908
lwrist -14.5178
lhand -19.9541 313.04
lfingers 7.12502
lthumb 6.38411 -17.0762
rfemur 18.6134 4.06318 33.4355
rtibia 17.6814
rfoot -12.7326 -9.23071
rtoes -14.5609
lfemur -23.8358 -22.3009 -15.3991
ltibia 28.3952
lfoot -12.3874 11.0476
ltoes -19.9691
1600
root 9.61591 15.0264 35.0154 177.329 -175.967 -183.364
lowerback 4.66643 3.54085 5.56563
upperback -6.84593 5.24031 -0.627907
thorax -9.34153 2.1332 -4.41578
lowerneck -7.09708 -5.11089 -8.15351
upperneck 12.7722 -7.25619 9.40558
head 5.6517 -3.33561 3.76518
rclavicle 6.95746e-016 -1.03368e-014
rhumerus -30.6146 8.66143 -92.2579
rradius 61.7405
rwrist -17.4208
rhand 2.66557 -53.2702
rfingers 7.12502
rthumb -151.859 98.8216
lclavicle 6.95746e-016 -1.03368e-014
lhumerus -60.2792 7.16144 64.8228
lradius 30.9273
lwrist -14.5866
lhand -20.9269 312.308
lfingers 7.12502
lthumb 5.44496 -17.7824
rfemur 16.6975 2.19543 31.3104
rtibia 22.1563
rfoot -12.7852 -7.04333
rtoes -12.3851
lfemur -22.7109 -22.5084 -16.9355
ltibia 27.1287
lfoot -9.66162 10.8613
ltoes -16.6227
1601
root 9.61888 15.0605 35.0614 177.596 -176.219 -182.937
lowerback 5.39348 2.95106 4.62219
upperback -7.16219 4.44918 -0.1896
thorax -10.3144 1.7905 -3.40485
lowerneck -7.01476 -4.68308 -9.34276
upperneck 13.0392 -6.59291 9.72941
head 5.70845 -3.04965 4.12491
rclavicle 3.89618e-014 4.37326e-015
rhumerus -32.4724 7.3206 -91.5115
rradius 58.209
rwrist -16.1384
rhand 2.01139 -53.4777
rfingers 7.12502
rthumb -152.485 98.5128
lclavicle 3.89618e-014 4.37326e-015
lhumerus -58.6638 8.55092 67.1742
lradius 31.6352
lwrist -14.748
lhand -22.0109 311.219
lfingers 7.12502
lthumb 4.39828 -18.8463
rfemur 13.8136 1.16503 30.3348
rtibia 26.7535
rfoot -11.4808 -5.6973
rtoes -10.9629
lfemur -22.4976 -21.2254 -17.5276
ltibia 25.9929
lfoot -7.17863 9.24594
ltoes -20.7914
1602
root 9.64527 15.0939 35.2486 177.31 -176.474 -181.486
lowerback 4.2526 2.84997 3.4861
upperback -6.91101 4.09203 -0.711836
thorax -9.41067 1.71515 -3.19934
lowerneck -7.08951 -4.60275 -9.25221
upperneck 13.4021 -6.53543 9.86563
head 5.82925 -3.00402 4.1595
rclavicle -6.16232e-015 -8.74653e-015
rhumerus -33.9275 4.2771 -90.537
rradius 53.7762
rwrist -14.9607
rhand -0.110388 -54.3127
rfingers 7.12502
rthumb -154.515 97.3714
lclavicle -6.16232e-015 -8.74653e-015
lhumerus -56.1116 7.55013 70.158
lradius 32.6491
lwrist -13.7803
lhand -21.7913 311.777
lfingers 7.12502
lthumb 4.61027 -18.2934
rfemur 12.301 -0.864541 27.3778
rtibia 31.3656
rfoot -10.3716 -2.89471
rtoes -9.19379
lfemur -20.8351 -21.1007 -19.877
ltibia 24.9341
lfoot -6.39511 8.63281
ltoes -21.2775
1603
root 9.68784 15.0999 35.3454 176.382 -177.799 -181.335
lowerback 5.31826 2.25509 3.97103
upperback -6.77498 3.36027 -0.951246
thorax -9.91582 1.29664 -3.69747
lowerneck -7.13792 -4.51611 -9.17676
upperneck 13.7925 -6.45806 9.90751
head 5.94985 -2.95589 4.16892
rclavicle 2.32578e-014 1.19271e-015
rhumerus -35.6057 1.23542 -89.1433
rradius 49.371
rwrist -13.6974
rhand -5.09103 -57.3031
rfingers 7.12502
rthumb -159.294 93.7815
lclavicle 2.32578e-014 1.19271e-015
lhumerus -53.6336 5.73152 73.7032
lradius 34.1698
lwrist -11.5629
lhand -22.6036 310.896
lfingers 7.12502
lthumb 3.82593 -19.1587
rfemur 10.9346 -3.42656 26.0269
rtibia 36.0816
rfoot -7.97999 -0.685211
rtoes -6.39231
lfemur -19.1812 -20.9748 -20.9793
ltibia 23.9843
lfoot -5.17694 6.66479
ltoes -19.9982
1604
root 9.69888 15.1279 35.453 176.344 -177.789 -180.992
lowerback 5.26382 2.11028 3.47074
upperback -6.81132 3.11389 -0.935561
thorax -9.96845 1.2125 -3.36773
lowerneck -7.23799 -4.38098 -9.15396
upperneck 14.186 -6.27524 9.77199
head 6.06658 -2.86981 4.13818
rclavicle -1.08338e-014 1.59028e-015
rhumerus -37.6552 -1.16704 -87.282
rradius 45.6129
rwrist -11.5479
rhand -6.2211 -56.8721
rfingers 7.12502
rthumb -160.38 94.098
lclavicle -1.08338e-014 1.59028e-015
lhumerus -51.3526 4.13882 76.9208
lradius 35.936
lwrist -9.91778
lhand -23.876 308.703
lfingers 7.12502
lthumb 2.59711 -21.3328
rfemur 8.5438 -4.54494 24.6864
rtibia 40.8009
rfoot -5.47383 0.597201
rtoes -12.2745
lfemur -18.2735 -20.2131 -21.6657
ltibia 23.1045
lfoot -5.12217 6.74673
ltoes -26.2613
1605
root 9.7257 15.1446 35.5545 176.163 -178.151 -180.666
lowerback 5.31779 1.80314 3.20404
upperback -6.72816 2.67209 -0.949096
thorax -9.95319 1.01838 -3.17533
lowerneck -7.45837 -4.19695 -9.01151
upperneck 14.4767 -6.01075 9.56092
head 6.15881 -2.74069 4.06762
rclavicle -1.20265e-014 -1.09332e-014
rhumerus -39.5481 -3.14438 -84.9729
rradius 42.2319
rwrist -9.38068
rhand -3.39912 -54.5279
rfingers 7.12502
rthumb -157.669 96.7426
lclavicle -1.20265e-014 -1.09332e-014
lhumerus -49.1311 2.82587 79.6573
lradius 39.1559
lwrist -7.2452
lhand -22.9071 309.469
lfingers 7.12502
lthumb 3.53286 -20.5808
rfemur 6.1476 -6.05358 23.222
rtibia 45.7792
rfoot -3.01334 1.94136
rtoes -13.7422
lfemur -17.3058 -19.7228 -22.4507
ltibia 22.2948
lfoot -4.99255 6.0184
ltoes -27.1867
